name rise42.5664peak47.7979fall81.9185.mot
datacolumns 19
datarows 12
range 15.06660700000000 15.08494300000000
endheader
time	ground_force1_vx	ground_force1_vy	ground_force1_vz	ground_force1_px	ground_force1_py	ground_force1_pz	ground_force2_vx	ground_force2_vy	ground_force2_vz	ground_force2_px	ground_force2_py	ground_force2_pz	ground_torque1_x	ground_torque1_y	ground_torque1_z	ground_torque2_x	ground_torque2_y	ground_torque2_z	
15.06660700000000	47.21388800000000	761.61823600000002	61.20595800000000	0.27841800000000	0.00000000000000	0.12146500000000	0.00000000000000	0.00000000000000	0.00000000000000	0.00000000000000	0.00000000000000	0.00000000000000	0.00000000000000	22.12060400000000	0.00000000000000	0.00000000000000	0.00000000000000	0.00000000000000	
15.06827500000000	46.44574900000000	763.91326400000003	61.31983300000000	0.27747300000000	0.00000000000000	0.12146500000000	0.00000000000000	0.00000000000000	0.00000000000000	0.00000000000000	0.00000000000000	0.00000000000000	0.00000000000000	22.20912100000000	0.00000000000000	0.00000000000000	0.00000000000000	0.00000000000000	
15.06994000000000	45.68654000000000	766.10413300000005	61.43100700000000	0.27655400000000	0.00000000000000	0.12146500000000	0.00000000000000	0.00000000000000	0.00000000000000	0.00000000000000	0.00000000000000	0.00000000000000	0.00000000000000	22.29599400000000	0.00000000000000	0.00000000000000	0.00000000000000	0.00000000000000	
15.07160800000000	44.93689400000000	768.18973600000004	61.53934100000000	0.27566000000000	0.00000000000000	0.12146400000000	0.00000000000000	0.00000000000000	0.00000000000000	0.00000000000000	0.00000000000000	0.00000000000000	0.00000000000000	22.38104000000000	0.00000000000000	0.00000000000000	0.00000000000000	0.00000000000000	
15.07327500000000	44.19735000000000	770.16901700000005	61.64462600000000	0.27479000000000	0.00000000000000	0.12146300000000	0.00000000000000	0.00000000000000	0.00000000000000	0.00000000000000	0.00000000000000	0.00000000000000	0.00000000000000	22.46404900000000	0.00000000000000	0.00000000000000	0.00000000000000	0.00000000000000	
15.07494100000000	43.46835200000000	772.04099299999996	61.74658700000000	0.27394200000000	0.00000000000000	0.12146100000000	0.00000000000000	0.00000000000000	0.00000000000000	0.00000000000000	0.00000000000000	0.00000000000000	0.00000000000000	22.54478200000000	0.00000000000000	0.00000000000000	0.00000000000000	0.00000000000000	
15.07660500000000	42.75025900000000	773.80475700000000	61.84489200000000	0.27311300000000	0.00000000000000	0.12146000000000	0.00000000000000	0.00000000000000	0.00000000000000	0.00000000000000	0.00000000000000	0.00000000000000	0.00000000000000	22.62298200000000	0.00000000000000	0.00000000000000	0.00000000000000	0.00000000000000	
15.07827400000000	42.04334200000000	775.45949599999994	61.93915400000000	0.27230200000000	0.00000000000000	0.12145800000000	0.00000000000000	0.00000000000000	0.00000000000000	0.00000000000000	0.00000000000000	0.00000000000000	0.00000000000000	22.69837000000000	0.00000000000000	0.00000000000000	0.00000000000000	0.00000000000000	
15.07994100000000	41.34779500000000	777.00450000000001	62.02893600000000	0.27150700000000	0.00000000000000	0.12145700000000	0.00000000000000	0.00000000000000	0.00000000000000	0.00000000000000	0.00000000000000	0.00000000000000	0.00000000000000	22.77065000000000	0.00000000000000	0.00000000000000	0.00000000000000	0.00000000000000	
15.08160900000000	40.66373200000000	778.43916999999999	62.11375900000000	0.27072600000000	0.00000000000000	0.12145500000000	0.00000000000000	0.00000000000000	0.00000000000000	0.00000000000000	0.00000000000000	0.00000000000000	0.00000000000000	22.83951500000000	0.00000000000000	0.00000000000000	0.00000000000000	0.00000000000000	
15.08327900000000	39.99119700000000	779.76303199999995	62.19310900000000	0.26995800000000	0.00000000000000	0.12145400000000	0.00000000000000	0.00000000000000	0.00000000000000	0.00000000000000	0.00000000000000	0.00000000000000	0.00000000000000	22.90464300000000	0.00000000000000	0.00000000000000	0.00000000000000	0.00000000000000	
15.08494300000000	39.33016500000000	780.97574299999997	62.26643800000000	0.26919900000000	0.00000000000000	0.12145300000000	0.00000000000000	0.00000000000000	0.00000000000000	0.00000000000000	0.00000000000000	0.00000000000000	0.00000000000000	22.96571100000000	0.00000000000000	0.00000000000000	0.00000000000000	0.00000000000000	
